<?xml version="1.0" standalone="no"?>
<!DOCTYPE svg PUBLIC "-//W3C//DTD SVG 20010904//EN"
 "http://www.w3.org/TR/2001/REC-SVG-20010904/DTD/svg10.dtd">
<svg version="1.0" xmlns="http://www.w3.org/2000/svg"
 width="1200.000000pt" height="1200.000000pt" viewBox="0 0 1200.000000 1200.000000"
 preserveAspectRatio="xMidYMid meet">

<g transform="translate(0.000000,1200.000000) scale(0.100000,-0.100000)"
fill="#000000" stroke="none">
<path d="M5413 9345 c-151 -27 -281 -89 -395 -184 -157 -132 -261 -324 -288
-531 -8 -60 -10 -467 -8 -1370 l3 -1285 27 -89 c100 -332 359 -558 693 -606
96 -13 1012 -13 1112 1 364 50 655 335 713 699 14 89 14 2581 0 2670 -24 147
-86 286 -179 400 -111 136 -241 222 -418 277 l-88 27 -550 3 c-422 1 -567 -1
-622 -12z m1272 -78 c244 -86 416 -258 502 -502 l28 -80 3 -1345 c2 -1318 2
-1346 -18 -1424 -65 -259 -251 -457 -514 -549 l-91 -32 -569 -3 c-652 -3 -649
-3 -826 85 -79 39 -111 63 -186 138 -103 102 -151 177 -197 310 l-32 90 0
1360 0 1360 29 85 c90 271 318 475 587 529 24 5 305 8 624 8 l580 -2 80 -28z"/>
<path d="M5392 9211 c-240 -59 -428 -236 -511 -479 l-26 -77 0 -1340 0 -1340
26 -77 c41 -118 94 -205 178 -289 84 -84 171 -137 289 -178 l77 -26 575 0 575
0 77 26 c113 39 202 93 286 174 l76 72 -49 64 c-63 82 -177 222 -187 230 -5 3
-52 6 -106 7 -310 7 -654 55 -897 126 l-80 23 -1 46 -1 47 81 24 c172 53 608
176 622 176 8 0 14 3 14 7 0 3 -52 70 -115 148 l-115 142 -87 7 c-148 11 -541
83 -619 113 -10 4 -14 16 -12 36 4 37 -8 33 266 83 114 20 210 40 215 44 4 3
-51 79 -122 167 -226 281 -266 341 -309 453 -11 30 -53 132 -92 225 -40 94
-81 190 -90 215 -10 25 -57 137 -104 248 -47 112 -86 208 -86 213 0 10 93 12
128 3 13 -4 48 -44 89 -103 449 -649 536 -766 587 -796 36 -21 278 -116 486
-190 36 -13 146 -53 245 -90 242 -89 456 -165 467 -165 4 0 8 321 8 713 0 764
-1 778 -52 904 -66 163 -216 313 -381 380 -125 51 -152 53 -722 52 -475 0
-538 -2 -603 -18z"/>
<path d="M3060 4030 l0 -470 130 0 130 0 2 305 3 304 175 -160 c96 -89 247
-226 334 -305 l159 -144 128 0 129 0 0 470 0 470 -130 0 -130 0 0 -306 0 -306
-147 135 c-82 75 -231 212 -333 306 l-185 170 -132 1 -133 0 0 -470z"/>
<path d="M4900 4458 c-13 -24 -138 -233 -277 -466 -139 -232 -253 -425 -253
-427 0 -3 64 -5 143 -5 l143 0 31 53 c18 28 35 60 39 70 6 16 31 17 339 17
l333 0 39 -67 39 -68 152 -3 151 -3 -205 343 c-113 189 -240 400 -282 471
l-76 127 -146 0 -146 0 -24 -42z m283 -395 c59 -102 106 -187 104 -190 -2 -2
-103 -2 -224 -1 l-221 3 112 188 c61 103 113 187 116 187 3 -1 54 -85 113
-187z"/>
<path d="M5890 4030 l0 -470 130 0 130 0 0 365 0 365 306 0 306 0 29 -29 c34
-34 39 -83 13 -120 -33 -46 -64 -51 -347 -51 l-263 0 266 -265 266 -265 176 2
175 3 -183 165 c-100 91 -183 167 -183 170 -1 3 24 6 54 7 109 1 191 41 252
121 113 148 63 352 -110 444 -42 23 -45 23 -529 26 l-488 3 0 -471z"/>
<path d="M7270 4030 l0 -470 130 0 130 0 0 470 0 470 -130 0 -130 0 0 -470z"/>
<path d="M7750 4030 l0 -470 130 0 130 0 2 304 3 304 110 -102 c61 -55 156
-141 210 -191 55 -49 132 -119 170 -155 39 -36 93 -87 122 -113 l52 -47 131 0
130 0 0 470 0 470 -130 0 -130 0 0 -306 0 -306 -67 61 c-38 33 -187 170 -333
305 l-265 245 -132 0 -133 1 0 -470z"/>
</g>
</svg>
